<svg width="16" height="17" viewBox="0 0 16 17" fill="none" xmlns="http://www.w3.org/2000/svg">
<path d="M4.89535 1.19072C4.89535 0.864529 4.63452 0.600098 4.31276 0.600098C3.99101 0.600098 3.73017 0.864529 3.73017 1.19072V2.43439C2.61212 2.52515 1.87814 2.74791 1.33889 3.29459C0.799651 3.84127 0.579928 4.58538 0.490399 5.71885H15.903C15.8135 4.58538 15.5937 3.84127 15.0545 3.29459C14.5152 2.74791 13.7813 2.52515 12.6632 2.43439V1.19072C12.6632 0.864529 12.4024 0.600098 12.0806 0.600098C11.7589 0.600098 11.498 0.864529 11.498 1.19072V2.38213C10.9813 2.37197 10.402 2.37197 9.75026 2.37197H6.64312C5.99137 2.37197 5.41212 2.37197 4.89535 2.38213V1.19072Z" fill="white"/>
<path fill-rule="evenodd" clip-rule="evenodd" d="M0.428833 8.67197C0.428833 8.01123 0.428833 7.42399 0.438855 6.9001H15.9545C15.9645 7.42399 15.9645 8.01123 15.9645 8.67197V10.247C15.9645 13.2168 15.9645 14.7017 15.0545 15.6244C14.1444 16.547 12.6797 16.547 9.75026 16.547H6.64312C3.71368 16.547 2.24896 16.547 1.33889 15.6244C0.428833 14.7017 0.428833 13.2168 0.428833 10.247V8.67197ZM12.0806 10.247C12.5096 10.247 12.8574 9.8944 12.8574 9.45947C12.8574 9.02455 12.5096 8.67197 12.0806 8.67197C11.6516 8.67197 11.3038 9.02455 11.3038 9.45947C11.3038 9.8944 11.6516 10.247 12.0806 10.247ZM12.0806 13.397C12.5096 13.397 12.8574 13.0444 12.8574 12.6095C12.8574 12.1745 12.5096 11.822 12.0806 11.822C11.6516 11.822 11.3038 12.1745 11.3038 12.6095C11.3038 13.0444 11.6516 13.397 12.0806 13.397ZM8.97348 9.45947C8.97348 9.8944 8.6257 10.247 8.19669 10.247C7.76768 10.247 7.4199 9.8944 7.4199 9.45947C7.4199 9.02455 7.76768 8.67197 8.19669 8.67197C8.6257 8.67197 8.97348 9.02455 8.97348 9.45947ZM8.97348 12.6095C8.97348 13.0444 8.6257 13.397 8.19669 13.397C7.76768 13.397 7.4199 13.0444 7.4199 12.6095C7.4199 12.1745 7.76768 11.822 8.19669 11.822C8.6257 11.822 8.97348 12.1745 8.97348 12.6095ZM4.31276 10.247C4.74177 10.247 5.08955 9.8944 5.08955 9.45947C5.08955 9.02455 4.74177 8.67197 4.31276 8.67197C3.88375 8.67197 3.53598 9.02455 3.53598 9.45947C3.53598 9.8944 3.88375 10.247 4.31276 10.247ZM4.31276 13.397C4.74177 13.397 5.08955 13.0444 5.08955 12.6095C5.08955 12.1745 4.74177 11.822 4.31276 11.822C3.88375 11.822 3.53598 12.1745 3.53598 12.6095C3.53598 13.0444 3.88375 13.397 4.31276 13.397Z" fill="white"/>
</svg>
