<svg width="18" height="24" viewBox="0 0 18 24" fill="none" xmlns="http://www.w3.org/2000/svg">
<path d="M10.7147 0C8.58454 0 6.85773 1.72698 6.85773 3.85731C6.85773 4.49705 6.40624 5.14321 5.76656 5.14321H3.85694C1.72681 5.14321 0 6.87019 0 9.00053C0 11.1309 1.72681 12.8578 3.85693 12.8578H6.00071C6.47374 12.8578 6.85721 13.2413 6.85721 13.7144C6.85721 14.1875 6.47374 14.571 6.00071 14.571H4.71481C2.11132 14.571 0.000768097 16.6818 0.000767983 19.2855L0.000767945 20.1427C0.000767852 22.273 1.72758 24 3.8577 24C5.98783 24 7.71464 22.273 7.71464 20.1427C7.71464 18.4863 9.05729 17.1435 10.7135 17.1435H11.5713C13.7014 17.1435 15.4282 15.4165 15.4282 13.2862C15.4282 11.1559 13.7014 9.42889 11.5712 9.42889H9.39377C8.93935 9.42889 8.57097 9.06047 8.57097 8.60601C8.57097 7.94798 9.34098 7.52277 9.98729 7.64613C10.2228 7.69109 10.466 7.71462 10.7147 7.71462H14.1431C16.2732 7.71462 18 5.98765 18 3.85731C18 1.72698 16.2732 0 14.1431 0H10.7147Z" fill="white"/>
</svg>
